<mxfile host="Electron" modified="2023-11-29T21:45:18.193Z" agent="Mozilla/5.0 (Windows NT 10.0; Win64; x64) AppleWebKit/537.36 (KHTML, like Gecko) draw.io/22.1.2 Chrome/114.0.5735.289 Electron/25.9.4 Safari/537.36" etag="wSOPElg1zYEMmMb3C0_l" version="22.1.2" type="device">
  <diagram id="C5RBs43oDa-KdzZeNtuy" name="Page-1">
    <mxGraphModel dx="1594" dy="945" grid="1" gridSize="10" guides="1" tooltips="1" connect="1" arrows="1" fold="1" page="1" pageScale="1" pageWidth="827" pageHeight="1169" math="0" shadow="0">
      <root>
        <mxCell id="WIyWlLk6GJQsqaUBKTNV-0" />
        <mxCell id="WIyWlLk6GJQsqaUBKTNV-1" parent="WIyWlLk6GJQsqaUBKTNV-0" />
        <UserObject label="" tags="Фон" id="9Zyb0vrRmJTuWRbHED0v-0">
          <mxCell style="vsdxID=5;fillColor=#FFFFFF;gradientColor=none;shape=stencil(nZBLDoAgDERP0z3SIyjew0SURgSD+Lu9kMZoXLhwN9O+tukAlrNpJg1SzDH4QW/URgNYgZTkjA4UkwJUgGXng+6DX1zLfmoymdXo17xh5zmRJ6Q42BWCfc2oJfdAr+Yv+AP9Cb7OJ3H/2JG1HNGz/84klThPVCc=);strokeColor=#000000;strokeWidth=4;points=[];labelBackgroundColor=none;rounded=0;html=1;whiteSpace=wrap;fontFamily=Arial;fontSize=14;" parent="WIyWlLk6GJQsqaUBKTNV-1" vertex="1">
            <mxGeometry x="80" y="20" width="300" height="56" as="geometry" />
          </mxCell>
        </UserObject>
        <UserObject label="" tags="Фон" id="9Zyb0vrRmJTuWRbHED0v-1">
          <mxCell style="vsdxID=82;edgeStyle=none;startArrow=none;endArrow=none;startSize=5;endSize=5;strokeWidth=2;strokeColor=#000000;spacingTop=0;spacingBottom=0;spacingLeft=0;spacingRight=0;verticalAlign=middle;html=1;labelBackgroundColor=none;rounded=0;fontFamily=Arial;fontSize=14;" parent="WIyWlLk6GJQsqaUBKTNV-1" edge="1">
            <mxGeometry relative="1" as="geometry">
              <Array as="points" />
              <mxPoint x="1660" y="124" as="sourcePoint" />
              <mxPoint x="1660" y="108" as="targetPoint" />
            </mxGeometry>
          </mxCell>
        </UserObject>
        <UserObject label="" tags="Фон" id="9Zyb0vrRmJTuWRbHED0v-2">
          <mxCell style="vsdxID=1;edgeStyle=none;startArrow=none;endArrow=none;startSize=5;endSize=5;strokeWidth=4;strokeColor=#000000;spacingTop=0;spacingBottom=0;spacingLeft=0;spacingRight=0;verticalAlign=middle;html=1;labelBackgroundColor=none;rounded=0;fontFamily=Arial;fontSize=14;" parent="WIyWlLk6GJQsqaUBKTNV-1" edge="1">
            <mxGeometry relative="1" as="geometry">
              <Array as="points" />
              <mxPoint x="1660" y="20" as="sourcePoint" />
              <mxPoint x="1660" y="1170" as="targetPoint" />
            </mxGeometry>
          </mxCell>
        </UserObject>
        <UserObject label="" tags="Фон" id="9Zyb0vrRmJTuWRbHED0v-3">
          <mxCell style="vsdxID=2;edgeStyle=none;startArrow=none;endArrow=none;startSize=5;endSize=5;strokeWidth=4;strokeColor=#000000;spacingTop=0;spacingBottom=0;spacingLeft=0;spacingRight=0;verticalAlign=middle;html=1;labelBackgroundColor=none;rounded=0;fontFamily=Arial;fontSize=14;" parent="WIyWlLk6GJQsqaUBKTNV-1" edge="1">
            <mxGeometry relative="1" as="geometry">
              <Array as="points" />
              <mxPoint x="1660" y="1168" as="sourcePoint" />
              <mxPoint x="80" y="1168" as="targetPoint" />
            </mxGeometry>
          </mxCell>
        </UserObject>
        <UserObject label="" tags="Фон" id="9Zyb0vrRmJTuWRbHED0v-4">
          <mxCell style="vsdxID=3;edgeStyle=none;startArrow=none;endArrow=none;startSize=5;endSize=5;strokeWidth=4;strokeColor=#000000;spacingTop=0;spacingBottom=0;spacingLeft=0;spacingRight=0;verticalAlign=middle;html=1;labelBackgroundColor=none;rounded=0;fontFamily=Arial;fontSize=14;" parent="WIyWlLk6GJQsqaUBKTNV-1" edge="1">
            <mxGeometry relative="1" as="geometry">
              <mxPoint as="offset" />
              <Array as="points" />
              <mxPoint x="80" y="20" as="sourcePoint" />
              <mxPoint x="1660" y="20" as="targetPoint" />
            </mxGeometry>
          </mxCell>
        </UserObject>
        <UserObject label="" tags="Фон" id="9Zyb0vrRmJTuWRbHED0v-5">
          <mxCell style="vsdxID=4;edgeStyle=none;startArrow=none;endArrow=none;startSize=5;endSize=5;strokeWidth=4;strokeColor=#000000;spacingTop=0;spacingBottom=0;spacingLeft=0;spacingRight=0;verticalAlign=middle;html=1;labelBackgroundColor=none;rounded=0;fontFamily=Arial;fontSize=14;" parent="WIyWlLk6GJQsqaUBKTNV-1" edge="1">
            <mxGeometry relative="1" as="geometry">
              <Array as="points" />
              <mxPoint x="80" y="20" as="sourcePoint" />
              <mxPoint x="80" y="1168" as="targetPoint" />
            </mxGeometry>
          </mxCell>
        </UserObject>
        <mxCell id="9Zyb0vrRmJTuWRbHED0v-6" value="Пачатак" style="strokeWidth=2;html=1;shape=mxgraph.flowchart.terminator;whiteSpace=wrap;fontSize=14;gradientColor=none;fontFamily=Arial;" parent="WIyWlLk6GJQsqaUBKTNV-1" vertex="1">
          <mxGeometry x="240" y="149" width="200" height="50" as="geometry" />
        </mxCell>
        <mxCell id="9Zyb0vrRmJTuWRbHED0v-7" value="Атрыманне бягучай даты" style="rounded=1;whiteSpace=wrap;html=1;absoluteArcSize=1;arcSize=0;strokeWidth=2;fontSize=14;align=center;fontFamily=Arial;" parent="WIyWlLk6GJQsqaUBKTNV-1" vertex="1">
          <mxGeometry x="240" y="240" width="200" height="100" as="geometry" />
        </mxCell>
        <mxCell id="9Zyb0vrRmJTuWRbHED0v-9" value="" style="endArrow=none;html=1;rounded=0;fontSize=14;startSize=8;endSize=8;curved=1;exitX=0.5;exitY=0;exitDx=0;exitDy=0;exitPerimeter=0;entryX=0.5;entryY=1;entryDx=0;entryDy=0;fontFamily=Arial;" parent="WIyWlLk6GJQsqaUBKTNV-1" edge="1">
          <mxGeometry width="50" height="50" relative="1" as="geometry">
            <mxPoint x="339.78" y="520" as="sourcePoint" />
            <mxPoint x="339.78" y="480" as="targetPoint" />
          </mxGeometry>
        </mxCell>
        <mxCell id="9Zyb0vrRmJTuWRbHED0v-10" value="" style="endArrow=none;html=1;rounded=0;fontSize=14;startSize=8;endSize=8;curved=1;exitX=0.5;exitY=0;exitDx=0;exitDy=0;exitPerimeter=0;entryX=0.5;entryY=1;entryDx=0;entryDy=0;fontFamily=Arial;" parent="WIyWlLk6GJQsqaUBKTNV-1" edge="1">
          <mxGeometry width="50" height="50" relative="1" as="geometry">
            <mxPoint x="339.78" y="240" as="sourcePoint" />
            <mxPoint x="339.78" y="200" as="targetPoint" />
          </mxGeometry>
        </mxCell>
        <mxCell id="9Zyb0vrRmJTuWRbHED0v-11" value="Абразанне даты да 10 знакаў і замена &quot;-&quot; на &quot;.&quot;" style="rounded=1;whiteSpace=wrap;html=1;absoluteArcSize=1;arcSize=0;strokeWidth=2;fontSize=14;align=center;fontFamily=Arial;" parent="WIyWlLk6GJQsqaUBKTNV-1" vertex="1">
          <mxGeometry x="240" y="380" width="200" height="100" as="geometry" />
        </mxCell>
        <mxCell id="9Zyb0vrRmJTuWRbHED0v-12" value="&lt;br style=&quot;font-size: 14px;&quot;&gt;Выкананне пошуку ў базе дадзеных з названымі датай і email" style="strokeWidth=2;html=1;shape=mxgraph.flowchart.database;whiteSpace=wrap;fontSize=14;fontFamily=Arial;" parent="WIyWlLk6GJQsqaUBKTNV-1" vertex="1">
          <mxGeometry x="240" y="520" width="200" height="100" as="geometry" />
        </mxCell>
        <mxCell id="9Zyb0vrRmJTuWRbHED0v-13" value="&lt;div style=&quot;font-size: 14px;&quot;&gt;&lt;font style=&quot;font-size: 14px;&quot;&gt;Ёсць &lt;/font&gt;&lt;font style=&quot;font-size: 14px;&quot;&gt;даступныя&lt;/font&gt;&lt;/div&gt;&lt;div style=&quot;font-size: 14px;&quot;&gt;&lt;span style=&quot;font-size: 14px;&quot;&gt;&amp;nbsp;радкі?&lt;/span&gt;&lt;/div&gt;" style="strokeWidth=2;html=1;shape=mxgraph.flowchart.decision;whiteSpace=wrap;fontFamily=Arial;fontSize=14;" parent="WIyWlLk6GJQsqaUBKTNV-1" vertex="1">
          <mxGeometry x="240" y="660" width="200" height="100" as="geometry" />
        </mxCell>
        <mxCell id="9Zyb0vrRmJTuWRbHED0v-14" value="" style="endArrow=none;html=1;rounded=0;exitX=1;exitY=0.5;exitDx=0;exitDy=0;exitPerimeter=0;fontFamily=Arial;fontSize=14;" parent="WIyWlLk6GJQsqaUBKTNV-1" source="9Zyb0vrRmJTuWRbHED0v-13" edge="1">
          <mxGeometry width="50" height="50" relative="1" as="geometry">
            <mxPoint x="440" y="780" as="sourcePoint" />
            <mxPoint x="500" y="710" as="targetPoint" />
          </mxGeometry>
        </mxCell>
        <mxCell id="9Zyb0vrRmJTuWRbHED0v-15" value="Да" style="text;html=1;align=center;verticalAlign=middle;resizable=0;points=[];autosize=1;strokeColor=none;fillColor=none;fontFamily=Arial;fontSize=14;" parent="WIyWlLk6GJQsqaUBKTNV-1" vertex="1">
          <mxGeometry x="450" y="680" width="40" height="30" as="geometry" />
        </mxCell>
        <mxCell id="9Zyb0vrRmJTuWRbHED0v-16" value="А" style="strokeWidth=2;html=1;shape=mxgraph.flowchart.start_1;whiteSpace=wrap;fontFamily=Arial;fontSize=14;" parent="WIyWlLk6GJQsqaUBKTNV-1" vertex="1">
          <mxGeometry x="315" y="800" width="50" height="50" as="geometry" />
        </mxCell>
        <mxCell id="9Zyb0vrRmJTuWRbHED0v-17" value="" style="endArrow=none;html=1;rounded=0;exitX=0.5;exitY=1;exitDx=0;exitDy=0;exitPerimeter=0;entryX=0.5;entryY=0;entryDx=0;entryDy=0;entryPerimeter=0;fontFamily=Arial;fontSize=14;" parent="WIyWlLk6GJQsqaUBKTNV-1" source="9Zyb0vrRmJTuWRbHED0v-13" target="9Zyb0vrRmJTuWRbHED0v-16" edge="1">
          <mxGeometry width="50" height="50" relative="1" as="geometry">
            <mxPoint x="350" y="780" as="sourcePoint" />
            <mxPoint x="410" y="780" as="targetPoint" />
          </mxGeometry>
        </mxCell>
        <mxCell id="9Zyb0vrRmJTuWRbHED0v-18" value="" style="endArrow=none;html=1;rounded=0;exitX=0.5;exitY=1;exitDx=0;exitDy=0;exitPerimeter=0;entryX=0.5;entryY=0;entryDx=0;entryDy=0;entryPerimeter=0;fontFamily=Arial;fontSize=14;" parent="WIyWlLk6GJQsqaUBKTNV-1" edge="1">
          <mxGeometry width="50" height="50" relative="1" as="geometry">
            <mxPoint x="339.64" y="620" as="sourcePoint" />
            <mxPoint x="339.64" y="660" as="targetPoint" />
          </mxGeometry>
        </mxCell>
        <mxCell id="9Zyb0vrRmJTuWRbHED0v-19" value="" style="endArrow=none;html=1;rounded=0;fontSize=14;startSize=8;endSize=8;curved=1;exitX=0.5;exitY=0;exitDx=0;exitDy=0;exitPerimeter=0;entryX=0.5;entryY=1;entryDx=0;entryDy=0;fontFamily=Arial;" parent="WIyWlLk6GJQsqaUBKTNV-1" edge="1">
          <mxGeometry width="50" height="50" relative="1" as="geometry">
            <mxPoint x="339.74" y="380" as="sourcePoint" />
            <mxPoint x="339.74" y="340" as="targetPoint" />
          </mxGeometry>
        </mxCell>
        <mxCell id="9Zyb0vrRmJTuWRbHED0v-20" style="edgeStyle=orthogonalEdgeStyle;rounded=0;orthogonalLoop=1;jettySize=auto;html=1;exitX=0.5;exitY=1;exitDx=0;exitDy=0;exitPerimeter=0;fontFamily=Arial;fontSize=14;" parent="WIyWlLk6GJQsqaUBKTNV-1" source="9Zyb0vrRmJTuWRbHED0v-16" target="9Zyb0vrRmJTuWRbHED0v-16" edge="1">
          <mxGeometry relative="1" as="geometry" />
        </mxCell>
        <mxCell id="9Zyb0vrRmJTuWRbHED0v-21" value="&lt;div style=&quot;font-size: 14px;&quot;&gt;Атрыманне значэння id&amp;nbsp;&lt;/div&gt;&lt;div style=&quot;font-size: 14px;&quot;&gt;і даданне ў вектар&lt;/div&gt;" style="rounded=1;whiteSpace=wrap;html=1;absoluteArcSize=1;arcSize=0;strokeWidth=2;fontSize=14;align=center;fontFamily=Arial;" parent="WIyWlLk6GJQsqaUBKTNV-1" vertex="1">
          <mxGeometry x="636" y="180" width="200" height="100" as="geometry" />
        </mxCell>
        <mxCell id="9Zyb0vrRmJTuWRbHED0v-22" value="Фарміраванне запыту для дадання інфармацыі аб прададзеным прадукце" style="rounded=1;whiteSpace=wrap;html=1;absoluteArcSize=1;arcSize=0;strokeWidth=2;fontSize=14;align=center;fontFamily=Arial;" parent="WIyWlLk6GJQsqaUBKTNV-1" vertex="1">
          <mxGeometry x="636" y="600" width="200" height="100" as="geometry" />
        </mxCell>
        <mxCell id="9Zyb0vrRmJTuWRbHED0v-23" value="Фарміраванне запыту для выдалення прадукту" style="rounded=1;whiteSpace=wrap;html=1;absoluteArcSize=1;arcSize=0;strokeWidth=2;fontSize=14;align=center;fontFamily=Arial;" parent="WIyWlLk6GJQsqaUBKTNV-1" vertex="1">
          <mxGeometry x="636" y="740" width="200" height="100" as="geometry" />
        </mxCell>
        <mxCell id="9Zyb0vrRmJTuWRbHED0v-25" value="Фарміраванне запыту для выдалення прадукту" style="rounded=1;whiteSpace=wrap;html=1;absoluteArcSize=1;arcSize=0;strokeWidth=2;fontSize=14;align=center;fontFamily=Arial;" parent="WIyWlLk6GJQsqaUBKTNV-1" vertex="1">
          <mxGeometry x="972" y="180" width="200" height="100" as="geometry" />
        </mxCell>
        <mxCell id="9Zyb0vrRmJTuWRbHED0v-27" value="" style="endArrow=none;html=1;rounded=0;exitX=0.5;exitY=1;exitDx=0;exitDy=0;exitPerimeter=0;entryX=0.5;entryY=0;entryDx=0;entryDy=0;entryPerimeter=0;fontFamily=Arial;fontSize=14;" parent="WIyWlLk6GJQsqaUBKTNV-1" edge="1">
          <mxGeometry width="50" height="50" relative="1" as="geometry">
            <mxPoint x="735.63" y="280" as="sourcePoint" />
            <mxPoint x="735.63" y="320" as="targetPoint" />
          </mxGeometry>
        </mxCell>
        <mxCell id="9Zyb0vrRmJTuWRbHED0v-28" value="" style="endArrow=none;html=1;rounded=0;exitX=0.5;exitY=1;exitDx=0;exitDy=0;exitPerimeter=0;entryX=0.5;entryY=0;entryDx=0;entryDy=0;entryPerimeter=0;fontFamily=Arial;fontSize=14;" parent="WIyWlLk6GJQsqaUBKTNV-1" edge="1">
          <mxGeometry width="50" height="50" relative="1" as="geometry">
            <mxPoint x="735.55" y="420" as="sourcePoint" />
            <mxPoint x="735.55" y="460" as="targetPoint" />
          </mxGeometry>
        </mxCell>
        <mxCell id="9Zyb0vrRmJTuWRbHED0v-29" value="" style="endArrow=none;html=1;rounded=0;exitX=0.5;exitY=1;exitDx=0;exitDy=0;exitPerimeter=0;entryX=0.5;entryY=0;entryDx=0;entryDy=0;entryPerimeter=0;fontFamily=Arial;fontSize=14;" parent="WIyWlLk6GJQsqaUBKTNV-1" edge="1">
          <mxGeometry width="50" height="50" relative="1" as="geometry">
            <mxPoint x="735.55" y="560" as="sourcePoint" />
            <mxPoint x="735.55" y="600" as="targetPoint" />
          </mxGeometry>
        </mxCell>
        <mxCell id="9Zyb0vrRmJTuWRbHED0v-30" value="" style="endArrow=none;html=1;rounded=0;exitX=0.5;exitY=1;exitDx=0;exitDy=0;exitPerimeter=0;entryX=0.5;entryY=0;entryDx=0;entryDy=0;entryPerimeter=0;fontFamily=Arial;fontSize=14;" parent="WIyWlLk6GJQsqaUBKTNV-1" edge="1">
          <mxGeometry width="50" height="50" relative="1" as="geometry">
            <mxPoint x="735.55" y="700" as="sourcePoint" />
            <mxPoint x="735.55" y="740" as="targetPoint" />
          </mxGeometry>
        </mxCell>
        <mxCell id="9Zyb0vrRmJTuWRbHED0v-31" value="" style="endArrow=none;html=1;rounded=0;exitX=0.5;exitY=1;exitDx=0;exitDy=0;exitPerimeter=0;entryX=0.5;entryY=0;entryDx=0;entryDy=0;entryPerimeter=0;fontFamily=Arial;fontSize=14;" parent="WIyWlLk6GJQsqaUBKTNV-1" edge="1">
          <mxGeometry width="50" height="50" relative="1" as="geometry">
            <mxPoint x="735.55" y="840" as="sourcePoint" />
            <mxPoint x="735.55" y="880" as="targetPoint" />
          </mxGeometry>
        </mxCell>
        <mxCell id="9Zyb0vrRmJTuWRbHED0v-32" value="" style="endArrow=none;html=1;rounded=0;exitX=0.5;exitY=1;exitDx=0;exitDy=0;exitPerimeter=0;entryX=0.5;entryY=0;entryDx=0;entryDy=0;entryPerimeter=0;fontFamily=Arial;fontSize=14;" parent="WIyWlLk6GJQsqaUBKTNV-1" edge="1">
          <mxGeometry width="50" height="50" relative="1" as="geometry">
            <mxPoint x="1071.55" y="140" as="sourcePoint" />
            <mxPoint x="1071.55" y="180" as="targetPoint" />
          </mxGeometry>
        </mxCell>
        <mxCell id="9Zyb0vrRmJTuWRbHED0v-33" value="" style="endArrow=none;html=1;rounded=0;exitX=0.5;exitY=1;exitDx=0;exitDy=0;exitPerimeter=0;entryX=0.5;entryY=0;entryDx=0;entryDy=0;entryPerimeter=0;fontFamily=Arial;fontSize=14;" parent="WIyWlLk6GJQsqaUBKTNV-1" edge="1">
          <mxGeometry width="50" height="50" relative="1" as="geometry">
            <mxPoint x="1071.55" y="280" as="sourcePoint" />
            <mxPoint x="1071.55" y="320" as="targetPoint" />
          </mxGeometry>
        </mxCell>
        <mxCell id="9Zyb0vrRmJTuWRbHED0v-34" value="Б" style="strokeWidth=2;html=1;shape=mxgraph.flowchart.start_1;whiteSpace=wrap;fontFamily=Arial;fontSize=14;" parent="WIyWlLk6GJQsqaUBKTNV-1" vertex="1">
          <mxGeometry x="500" y="685" width="50" height="50" as="geometry" />
        </mxCell>
        <mxCell id="9Zyb0vrRmJTuWRbHED0v-35" value="А" style="strokeWidth=2;html=1;shape=mxgraph.flowchart.start_1;whiteSpace=wrap;fontFamily=Arial;fontSize=14;" parent="WIyWlLk6GJQsqaUBKTNV-1" vertex="1">
          <mxGeometry x="711" y="90" width="50" height="50" as="geometry" />
        </mxCell>
        <mxCell id="9Zyb0vrRmJTuWRbHED0v-36" value="" style="endArrow=none;html=1;rounded=0;exitX=0.5;exitY=1;exitDx=0;exitDy=0;exitPerimeter=0;entryX=0.5;entryY=0;entryDx=0;entryDy=0;entryPerimeter=0;fontFamily=Arial;fontSize=14;" parent="WIyWlLk6GJQsqaUBKTNV-1" edge="1">
          <mxGeometry width="50" height="50" relative="1" as="geometry">
            <mxPoint x="735.77" y="140" as="sourcePoint" />
            <mxPoint x="735.77" y="180" as="targetPoint" />
          </mxGeometry>
        </mxCell>
        <mxCell id="9Zyb0vrRmJTuWRbHED0v-38" value="Б" style="strokeWidth=2;html=1;shape=mxgraph.flowchart.start_1;whiteSpace=wrap;fontFamily=Arial;fontSize=14;" parent="WIyWlLk6GJQsqaUBKTNV-1" vertex="1">
          <mxGeometry x="1047" y="320" width="50" height="50" as="geometry" />
        </mxCell>
        <mxCell id="9Zyb0vrRmJTuWRbHED0v-39" value="Б" style="strokeWidth=2;html=1;shape=mxgraph.flowchart.start_1;whiteSpace=wrap;fontFamily=Arial;fontSize=14;" parent="WIyWlLk6GJQsqaUBKTNV-1" vertex="1">
          <mxGeometry x="1047" y="510" width="50" height="50" as="geometry" />
        </mxCell>
        <mxCell id="9Zyb0vrRmJTuWRbHED0v-40" value="" style="endArrow=none;html=1;rounded=0;exitX=0.5;exitY=1;exitDx=0;exitDy=0;exitPerimeter=0;entryX=0.5;entryY=0;entryDx=0;entryDy=0;entryPerimeter=0;fontFamily=Arial;fontSize=14;" parent="WIyWlLk6GJQsqaUBKTNV-1" edge="1">
          <mxGeometry width="50" height="50" relative="1" as="geometry">
            <mxPoint x="1071.77" y="560" as="sourcePoint" />
            <mxPoint x="1071.77" y="600" as="targetPoint" />
          </mxGeometry>
        </mxCell>
        <mxCell id="9Zyb0vrRmJTuWRbHED0v-41" value="Канец" style="strokeWidth=2;html=1;shape=mxgraph.flowchart.terminator;whiteSpace=wrap;fontSize=14;gradientColor=none;fontFamily=Arial;" parent="WIyWlLk6GJQsqaUBKTNV-1" vertex="1">
          <mxGeometry x="972" y="600" width="200" height="50" as="geometry" />
        </mxCell>
        <mxCell id="9Zyb0vrRmJTuWRbHED0v-42" value="&lt;br style=&quot;font-size: 14px;&quot;&gt;Стварэнне аб&#39;екта і атрыманне інфармацыі аб прадукце па яго id" style="strokeWidth=2;html=1;shape=mxgraph.flowchart.database;whiteSpace=wrap;fontSize=14;fontFamily=Arial;" parent="WIyWlLk6GJQsqaUBKTNV-1" vertex="1">
          <mxGeometry x="636" y="460" width="200" height="100" as="geometry" />
        </mxCell>
        <mxCell id="9Zyb0vrRmJTuWRbHED0v-43" value="" style="endArrow=none;html=1;rounded=0;exitX=0.5;exitY=1;exitDx=0;exitDy=0;exitPerimeter=0;entryX=0.5;entryY=0;entryDx=0;entryDy=0;entryPerimeter=0;fontFamily=Arial;fontSize=14;" parent="WIyWlLk6GJQsqaUBKTNV-1" edge="1">
          <mxGeometry width="50" height="50" relative="1" as="geometry">
            <mxPoint x="735.0899999999999" y="980" as="sourcePoint" />
            <mxPoint x="735.0899999999999" y="1020" as="targetPoint" />
          </mxGeometry>
        </mxCell>
        <mxCell id="9Zyb0vrRmJTuWRbHED0v-44" value="В" style="strokeWidth=2;html=1;shape=mxgraph.flowchart.start_1;whiteSpace=wrap;fontFamily=Arial;fontSize=14;" parent="WIyWlLk6GJQsqaUBKTNV-1" vertex="1">
          <mxGeometry x="710.9999999999998" y="1020.5" width="50" height="50" as="geometry" />
        </mxCell>
        <mxCell id="9Zyb0vrRmJTuWRbHED0v-45" value="В" style="strokeWidth=2;html=1;shape=mxgraph.flowchart.start_1;whiteSpace=wrap;fontFamily=Arial;fontSize=14;" parent="WIyWlLk6GJQsqaUBKTNV-1" vertex="1">
          <mxGeometry x="1047" y="90" width="50" height="50" as="geometry" />
        </mxCell>
        <UserObject label="&lt;div style=&quot;font-size: 14px;&quot;&gt;&lt;p style=&quot;border-color: var(--border-color); margin: 0px; vertical-align: middle; direction: ltr; font-size: 14px;&quot;&gt;&lt;font style=&quot;border-color: var(--border-color); font-size: 14px;&quot;&gt;&lt;i style=&quot;border-color: var(--border-color); font-size: 14px;&quot;&gt;&lt;font style=&quot;border-color: var(--border-color); font-size: 14px;&quot;&gt;«Сістэма заказаў у&lt;/font&gt;&amp;nbsp;&lt;/i&gt;&lt;/font&gt;&lt;/p&gt;&lt;p style=&quot;border-color: var(--border-color); margin: 0px; vertical-align: middle; direction: ltr; font-size: 14px;&quot;&gt;&lt;font style=&quot;border-color: var(--border-color); font-size: 14px;&quot;&gt;&lt;i style=&quot;border-color: var(--border-color); font-size: 14px;&quot;&gt;інтэрнэт-краме&lt;/i&gt;&lt;/font&gt;&lt;span style=&quot;font-size: 14px; background-color: initial;&quot;&gt;»&lt;/span&gt;&lt;i style=&quot;font-size: 14px; background-color: initial; border-color: var(--border-color);&quot;&gt;.&lt;/i&gt;&lt;/p&gt;&lt;p style=&quot;text-align: center; margin: 0px; text-indent: 0px; vertical-align: middle; direction: ltr; font-size: 14px;&quot;&gt;&lt;i style=&quot;font-size: 14px; background-color: initial; border-color: var(--border-color);&quot;&gt;Схема метаду&lt;/i&gt;&lt;i style=&quot;font-size: 14px; background-color: initial;&quot;&gt;&amp;nbsp;sell_order ()&lt;/i&gt;&lt;/p&gt;&lt;/div&gt;" tags="Фон" id="9Zyb0vrRmJTuWRbHED0v-46">
          <mxCell style="verticalAlign=middle;align=center;overflow=width;vsdxID=381;fillColor=none;gradientColor=none;shape=stencil(nZBLDoAgDERP0z3SIyjew0SURgSD+Lu9kMZoXLhwN9O+tukAlrNpJg1SzDH4QW/URgNYgZTkjA4UkwJUgGXng+6DX1zLfmoymdXo17xh5zmRJ6Q42BWCfc2oJfdAr+Yv+AP9Cb7OJ3H/2JG1HNGz/84klThPVCc=);strokeColor=none;points=[];labelBackgroundColor=none;rounded=0;html=1;whiteSpace=wrap;fontFamily=Arial;fontSize=14;" parent="WIyWlLk6GJQsqaUBKTNV-1" vertex="1">
            <mxGeometry x="1180" y="1008" width="280" height="100" as="geometry" />
          </mxCell>
        </UserObject>
        <UserObject label="" tags="Фон" id="9Zyb0vrRmJTuWRbHED0v-47">
          <mxCell style="vsdxID=384;edgeStyle=none;startArrow=none;endArrow=none;startSize=3;endSize=3;strokeWidth=4;strokeColor=#000000;spacingTop=-2;spacingBottom=-2;spacingLeft=-2;spacingRight=-2;verticalAlign=middle;html=1;labelBackgroundColor=#FFFFFF;rounded=0;fontFamily=Arial;fontSize=14;" parent="WIyWlLk6GJQsqaUBKTNV-1" edge="1">
            <mxGeometry relative="1" as="geometry">
              <Array as="points" />
              <mxPoint x="1460" y="1027" as="sourcePoint" />
              <mxPoint x="1460" y="1167" as="targetPoint" />
            </mxGeometry>
          </mxCell>
        </UserObject>
        <UserObject label="" tags="Фон" id="9Zyb0vrRmJTuWRbHED0v-48">
          <mxCell style="vsdxID=385;edgeStyle=none;startArrow=none;endArrow=none;startSize=3;endSize=3;strokeWidth=4;strokeColor=#000000;spacingTop=-2;spacingBottom=-2;spacingLeft=-2;spacingRight=-2;verticalAlign=middle;html=1;labelBackgroundColor=#FFFFFF;rounded=0;fontFamily=Arial;fontSize=14;" parent="WIyWlLk6GJQsqaUBKTNV-1" edge="1">
            <mxGeometry relative="1" as="geometry">
              <Array as="points" />
              <mxPoint x="1460" y="1027" as="sourcePoint" />
              <mxPoint x="1660" y="1027" as="targetPoint" />
            </mxGeometry>
          </mxCell>
        </UserObject>
        <UserObject label="" tags="Фон" id="9Zyb0vrRmJTuWRbHED0v-49">
          <mxCell style="vsdxID=386;edgeStyle=none;startArrow=none;endArrow=none;startSize=3;endSize=3;strokeWidth=4;strokeColor=#000000;spacingTop=-2;spacingBottom=-2;spacingLeft=-2;spacingRight=-2;verticalAlign=middle;html=1;labelBackgroundColor=#FFFFFF;rounded=0;fontFamily=Arial;fontSize=14;" parent="WIyWlLk6GJQsqaUBKTNV-1" edge="1">
            <mxGeometry relative="1" as="geometry">
              <Array as="points" />
              <mxPoint x="1660" y="1107" as="sourcePoint" />
              <mxPoint x="1460" y="1107" as="targetPoint" />
            </mxGeometry>
          </mxCell>
        </UserObject>
        <UserObject label="" tags="Фон" id="9Zyb0vrRmJTuWRbHED0v-50">
          <mxCell style="vsdxID=387;edgeStyle=none;startArrow=none;endArrow=none;startSize=3;endSize=3;strokeWidth=4;strokeColor=#000000;spacingTop=-2;spacingBottom=-2;spacingLeft=-2;spacingRight=-2;verticalAlign=middle;html=1;labelBackgroundColor=#FFFFFF;rounded=0;fontFamily=Arial;fontSize=14;" parent="WIyWlLk6GJQsqaUBKTNV-1" edge="1">
            <mxGeometry relative="1" as="geometry">
              <Array as="points" />
              <mxPoint x="1540" y="1087" as="sourcePoint" />
              <mxPoint x="1540" y="1107" as="targetPoint" />
            </mxGeometry>
          </mxCell>
        </UserObject>
        <UserObject label="" tags="Фон" id="9Zyb0vrRmJTuWRbHED0v-51">
          <mxCell style="vsdxID=388;edgeStyle=none;startArrow=none;endArrow=none;startSize=3;endSize=3;strokeWidth=4;strokeColor=#000000;spacingTop=-2;spacingBottom=-2;spacingLeft=-2;spacingRight=-2;verticalAlign=middle;html=1;labelBackgroundColor=#FFFFFF;rounded=0;fontFamily=Arial;fontSize=14;" parent="WIyWlLk6GJQsqaUBKTNV-1" edge="1">
            <mxGeometry relative="1" as="geometry">
              <Array as="points" />
              <mxPoint x="1588" y="1007" as="sourcePoint" />
              <mxPoint x="1588" y="1067" as="targetPoint" />
            </mxGeometry>
          </mxCell>
        </UserObject>
        <UserObject label="" tags="Фон" id="9Zyb0vrRmJTuWRbHED0v-52">
          <mxCell style="vsdxID=389;edgeStyle=none;startArrow=none;endArrow=none;startSize=3;endSize=3;strokeWidth=4;strokeColor=#000000;spacingTop=-2;spacingBottom=-2;spacingLeft=-2;spacingRight=-2;verticalAlign=middle;html=1;labelBackgroundColor=#FFFFFF;rounded=0;fontFamily=Arial;fontSize=14;" parent="WIyWlLk6GJQsqaUBKTNV-1" edge="1">
            <mxGeometry relative="1" as="geometry">
              <Array as="points" />
              <mxPoint x="1460" y="1087" as="sourcePoint" />
              <mxPoint x="1660" y="1087" as="targetPoint" />
            </mxGeometry>
          </mxCell>
        </UserObject>
        <UserObject label="" tags="Фон" id="9Zyb0vrRmJTuWRbHED0v-53">
          <mxCell style="vsdxID=390;edgeStyle=none;startArrow=none;endArrow=none;startSize=3;endSize=3;strokeWidth=4;strokeColor=#000000;spacingTop=-2;spacingBottom=-2;spacingLeft=-2;spacingRight=-2;verticalAlign=middle;html=1;labelBackgroundColor=#FFFFFF;rounded=0;fontFamily=Arial;fontSize=14;" parent="WIyWlLk6GJQsqaUBKTNV-1" edge="1">
            <mxGeometry relative="1" as="geometry">
              <Array as="points" />
              <mxPoint x="1588" y="1067" as="sourcePoint" />
              <mxPoint x="1588" y="1087" as="targetPoint" />
            </mxGeometry>
          </mxCell>
        </UserObject>
        <UserObject label="" tags="Фон" id="9Zyb0vrRmJTuWRbHED0v-54">
          <mxCell style="vsdxID=391;edgeStyle=none;startArrow=none;endArrow=none;startSize=3;endSize=3;strokeWidth=4;strokeColor=#000000;spacingTop=-2;spacingBottom=-2;spacingLeft=-2;spacingRight=-2;verticalAlign=middle;html=1;labelBackgroundColor=#FFFFFF;rounded=0;fontFamily=Arial;fontSize=14;" parent="WIyWlLk6GJQsqaUBKTNV-1" edge="1">
            <mxGeometry relative="1" as="geometry">
              <Array as="points" />
              <mxPoint x="1460" y="1007" as="sourcePoint" />
              <mxPoint x="1460" y="1030" as="targetPoint" />
            </mxGeometry>
          </mxCell>
        </UserObject>
        <UserObject label="" tags="Фон" id="9Zyb0vrRmJTuWRbHED0v-55">
          <mxCell style="vsdxID=392;edgeStyle=none;startArrow=none;endArrow=none;startSize=3;endSize=3;strokeColor=#000000;spacingTop=-2;spacingBottom=-2;spacingLeft=-2;spacingRight=-2;verticalAlign=middle;html=1;labelBackgroundColor=#FFFFFF;rounded=0;fontFamily=Arial;fontSize=14;" parent="WIyWlLk6GJQsqaUBKTNV-1" edge="1">
            <mxGeometry relative="1" as="geometry">
              <Array as="points" />
              <mxPoint x="1480" y="1027" as="sourcePoint" />
              <mxPoint x="1480" y="1087" as="targetPoint" />
            </mxGeometry>
          </mxCell>
        </UserObject>
        <UserObject label="" tags="Фон" id="9Zyb0vrRmJTuWRbHED0v-56">
          <mxCell style="vsdxID=393;edgeStyle=none;startArrow=none;endArrow=none;startSize=3;endSize=3;strokeColor=#000000;spacingTop=-2;spacingBottom=-2;spacingLeft=-2;spacingRight=-2;verticalAlign=middle;html=1;labelBackgroundColor=#FFFFFF;rounded=0;fontFamily=Arial;fontSize=14;" parent="WIyWlLk6GJQsqaUBKTNV-1" edge="1">
            <mxGeometry relative="1" as="geometry">
              <Array as="points" />
              <mxPoint x="1500" y="1027" as="sourcePoint" />
              <mxPoint x="1500" y="1087" as="targetPoint" />
            </mxGeometry>
          </mxCell>
        </UserObject>
        <UserObject label="" tags="Фон" id="9Zyb0vrRmJTuWRbHED0v-57">
          <mxCell style="vsdxID=394;edgeStyle=none;startArrow=none;endArrow=none;startSize=3;endSize=3;strokeWidth=4;strokeColor=#000000;spacingTop=-2;spacingBottom=-2;spacingLeft=-2;spacingRight=-2;verticalAlign=middle;html=1;labelBackgroundColor=#FFFFFF;rounded=0;fontFamily=Arial;fontSize=14;" parent="WIyWlLk6GJQsqaUBKTNV-1" edge="1">
            <mxGeometry relative="1" as="geometry">
              <Array as="points" />
              <mxPoint x="1520" y="1007" as="sourcePoint" />
              <mxPoint x="1520" y="1087" as="targetPoint" />
            </mxGeometry>
          </mxCell>
        </UserObject>
        <UserObject label="" tags="Фон" id="9Zyb0vrRmJTuWRbHED0v-58">
          <mxCell style="vsdxID=395;edgeStyle=none;startArrow=none;endArrow=none;startSize=3;endSize=3;strokeWidth=4;strokeColor=#000000;spacingTop=-2;spacingBottom=-2;spacingLeft=-2;spacingRight=-2;verticalAlign=middle;html=1;labelBackgroundColor=#FFFFFF;rounded=0;fontFamily=Arial;fontSize=14;" parent="WIyWlLk6GJQsqaUBKTNV-1" edge="1">
            <mxGeometry relative="1" as="geometry">
              <Array as="points" />
              <mxPoint x="1460" y="1107" as="sourcePoint" />
              <mxPoint x="1180" y="1107" as="targetPoint" />
            </mxGeometry>
          </mxCell>
        </UserObject>
        <UserObject label="" tags="Фон" id="9Zyb0vrRmJTuWRbHED0v-59">
          <mxCell style="vsdxID=396;edgeStyle=none;startArrow=none;endArrow=none;startSize=3;endSize=3;strokeWidth=4;strokeColor=#000000;spacingTop=-2;spacingBottom=-2;spacingLeft=-2;spacingRight=-2;verticalAlign=middle;html=1;labelBackgroundColor=#FFFFFF;rounded=0;fontFamily=Arial;fontSize=14;" parent="WIyWlLk6GJQsqaUBKTNV-1" edge="1">
            <mxGeometry relative="1" as="geometry">
              <Array as="points" />
              <mxPoint x="1180" y="947" as="sourcePoint" />
              <mxPoint x="1180" y="1167" as="targetPoint" />
            </mxGeometry>
          </mxCell>
        </UserObject>
        <UserObject label="" tags="Фон" id="9Zyb0vrRmJTuWRbHED0v-60">
          <mxCell style="vsdxID=397;edgeStyle=none;startArrow=none;endArrow=none;startSize=3;endSize=3;strokeWidth=4;strokeColor=#000000;spacingTop=-2;spacingBottom=-2;spacingLeft=-2;spacingRight=-2;verticalAlign=middle;html=1;labelBackgroundColor=#FFFFFF;rounded=0;fontFamily=Arial;fontSize=14;" parent="WIyWlLk6GJQsqaUBKTNV-1" edge="1">
            <mxGeometry relative="1" as="geometry">
              <Array as="points" />
              <mxPoint x="1180" y="1027" as="sourcePoint" />
              <mxPoint x="918" y="1027" as="targetPoint" />
            </mxGeometry>
          </mxCell>
        </UserObject>
        <UserObject label="" tags="Фон" id="9Zyb0vrRmJTuWRbHED0v-61">
          <mxCell style="vsdxID=398;edgeStyle=none;startArrow=none;endArrow=none;startSize=3;endSize=3;strokeWidth=4;strokeColor=#000000;spacingTop=-2;spacingBottom=-2;spacingLeft=-2;spacingRight=-2;verticalAlign=middle;html=1;labelBackgroundColor=#FFFFFF;rounded=0;fontFamily=Arial;fontSize=14;" parent="WIyWlLk6GJQsqaUBKTNV-1" edge="1">
            <mxGeometry relative="1" as="geometry">
              <Array as="points" />
              <mxPoint x="1180" y="1007" as="sourcePoint" />
              <mxPoint x="1660" y="1007" as="targetPoint" />
            </mxGeometry>
          </mxCell>
        </UserObject>
        <UserObject label="" tags="Фон" id="9Zyb0vrRmJTuWRbHED0v-62">
          <mxCell style="vsdxID=399;edgeStyle=none;startArrow=none;endArrow=none;startSize=3;endSize=3;strokeWidth=4;strokeColor=#000000;spacingTop=-2;spacingBottom=-2;spacingLeft=-2;spacingRight=-2;verticalAlign=middle;html=1;labelBackgroundColor=#FFFFFF;rounded=0;fontFamily=Arial;fontSize=14;" parent="WIyWlLk6GJQsqaUBKTNV-1" edge="1">
            <mxGeometry relative="1" as="geometry">
              <Array as="points" />
              <mxPoint x="1140" y="947" as="sourcePoint" />
              <mxPoint x="1140" y="1167" as="targetPoint" />
            </mxGeometry>
          </mxCell>
        </UserObject>
        <UserObject label="" tags="Фон" id="9Zyb0vrRmJTuWRbHED0v-63">
          <mxCell style="vsdxID=400;edgeStyle=none;startArrow=none;endArrow=none;startSize=3;endSize=3;strokeWidth=4;strokeColor=#000000;spacingTop=-2;spacingBottom=-2;spacingLeft=-2;spacingRight=-2;verticalAlign=middle;html=1;labelBackgroundColor=#FFFFFF;rounded=0;fontFamily=Arial;fontSize=14;" parent="WIyWlLk6GJQsqaUBKTNV-1" edge="1">
            <mxGeometry relative="1" as="geometry">
              <Array as="points" />
              <mxPoint x="1080" y="947" as="sourcePoint" />
              <mxPoint x="1080" y="1167" as="targetPoint" />
            </mxGeometry>
          </mxCell>
        </UserObject>
        <UserObject label="" tags="Фон" id="9Zyb0vrRmJTuWRbHED0v-64">
          <mxCell style="vsdxID=401;edgeStyle=none;startArrow=none;endArrow=none;startSize=3;endSize=3;strokeWidth=4;strokeColor=#000000;spacingTop=-2;spacingBottom=-2;spacingLeft=-2;spacingRight=-2;verticalAlign=middle;html=1;labelBackgroundColor=#FFFFFF;rounded=0;fontFamily=Arial;fontSize=14;" parent="WIyWlLk6GJQsqaUBKTNV-1" edge="1">
            <mxGeometry relative="1" as="geometry">
              <Array as="points" />
              <mxPoint x="988" y="947" as="sourcePoint" />
              <mxPoint x="988" y="1167" as="targetPoint" />
            </mxGeometry>
          </mxCell>
        </UserObject>
        <UserObject label="" tags="Фон" id="9Zyb0vrRmJTuWRbHED0v-65">
          <mxCell style="vsdxID=402;edgeStyle=none;startArrow=none;endArrow=none;startSize=3;endSize=3;strokeColor=#000000;spacingTop=-2;spacingBottom=-2;spacingLeft=-2;spacingRight=-2;verticalAlign=middle;html=1;labelBackgroundColor=#FFFFFF;rounded=0;fontFamily=Arial;fontSize=14;" parent="WIyWlLk6GJQsqaUBKTNV-1" edge="1">
            <mxGeometry relative="1" as="geometry">
              <Array as="points" />
              <mxPoint x="918" y="967" as="sourcePoint" />
              <mxPoint x="1180" y="967" as="targetPoint" />
            </mxGeometry>
          </mxCell>
        </UserObject>
        <UserObject label="" tags="Фон" id="9Zyb0vrRmJTuWRbHED0v-66">
          <mxCell style="vsdxID=403;edgeStyle=none;startArrow=none;endArrow=none;startSize=3;endSize=3;strokeColor=#000000;spacingTop=-2;spacingBottom=-2;spacingLeft=-2;spacingRight=-2;verticalAlign=middle;html=1;labelBackgroundColor=#FFFFFF;rounded=0;fontFamily=Arial;fontSize=14;" parent="WIyWlLk6GJQsqaUBKTNV-1" edge="1">
            <mxGeometry relative="1" as="geometry">
              <Array as="points" />
              <mxPoint x="1180" y="987" as="sourcePoint" />
              <mxPoint x="918" y="987" as="targetPoint" />
            </mxGeometry>
          </mxCell>
        </UserObject>
        <UserObject label="" tags="Фон" id="9Zyb0vrRmJTuWRbHED0v-67">
          <mxCell style="vsdxID=404;edgeStyle=none;startArrow=none;endArrow=none;startSize=3;endSize=3;strokeColor=#000000;spacingTop=-2;spacingBottom=-2;spacingLeft=-2;spacingRight=-2;verticalAlign=middle;html=1;labelBackgroundColor=#FFFFFF;rounded=0;fontFamily=Arial;fontSize=14;" parent="WIyWlLk6GJQsqaUBKTNV-1" edge="1">
            <mxGeometry relative="1" as="geometry">
              <Array as="points" />
              <mxPoint x="918" y="1007" as="sourcePoint" />
              <mxPoint x="1180" y="1007" as="targetPoint" />
            </mxGeometry>
          </mxCell>
        </UserObject>
        <UserObject label="" tags="Фон" id="9Zyb0vrRmJTuWRbHED0v-68">
          <mxCell style="vsdxID=405;edgeStyle=none;startArrow=none;endArrow=none;startSize=3;endSize=3;strokeColor=#000000;spacingTop=-2;spacingBottom=-2;spacingLeft=-2;spacingRight=-2;verticalAlign=middle;html=1;labelBackgroundColor=#FFFFFF;rounded=0;fontFamily=Arial;fontSize=14;" parent="WIyWlLk6GJQsqaUBKTNV-1" edge="1">
            <mxGeometry relative="1" as="geometry">
              <Array as="points" />
              <mxPoint x="1180" y="1067" as="sourcePoint" />
              <mxPoint x="918" y="1067" as="targetPoint" />
            </mxGeometry>
          </mxCell>
        </UserObject>
        <UserObject label="" tags="Фон" id="9Zyb0vrRmJTuWRbHED0v-69">
          <mxCell style="vsdxID=406;edgeStyle=none;startArrow=none;endArrow=none;startSize=3;endSize=3;strokeColor=#000000;spacingTop=-2;spacingBottom=-2;spacingLeft=-2;spacingRight=-2;verticalAlign=middle;html=1;labelBackgroundColor=#FFFFFF;rounded=0;fontFamily=Arial;fontSize=14;" parent="WIyWlLk6GJQsqaUBKTNV-1" edge="1">
            <mxGeometry relative="1" as="geometry">
              <Array as="points" />
              <mxPoint x="918" y="1087" as="sourcePoint" />
              <mxPoint x="1180" y="1087" as="targetPoint" />
            </mxGeometry>
          </mxCell>
        </UserObject>
        <UserObject label="" tags="Фон" id="9Zyb0vrRmJTuWRbHED0v-70">
          <mxCell style="vsdxID=407;edgeStyle=none;startArrow=none;endArrow=none;startSize=3;endSize=3;strokeColor=#000000;spacingTop=-2;spacingBottom=-2;spacingLeft=-2;spacingRight=-2;verticalAlign=middle;html=1;labelBackgroundColor=#FFFFFF;rounded=0;fontFamily=Arial;fontSize=14;" parent="WIyWlLk6GJQsqaUBKTNV-1" edge="1">
            <mxGeometry relative="1" as="geometry">
              <Array as="points" />
              <mxPoint x="1180" y="1107" as="sourcePoint" />
              <mxPoint x="918" y="1107" as="targetPoint" />
            </mxGeometry>
          </mxCell>
        </UserObject>
        <UserObject label="" tags="Фон" id="9Zyb0vrRmJTuWRbHED0v-71">
          <mxCell style="vsdxID=408;edgeStyle=none;startArrow=none;endArrow=none;startSize=3;endSize=3;strokeColor=#000000;spacingTop=-2;spacingBottom=-2;spacingLeft=-2;spacingRight=-2;verticalAlign=middle;html=1;labelBackgroundColor=#FFFFFF;rounded=0;fontFamily=Arial;fontSize=14;" parent="WIyWlLk6GJQsqaUBKTNV-1" edge="1">
            <mxGeometry relative="1" as="geometry">
              <Array as="points" />
              <mxPoint x="918" y="1127" as="sourcePoint" />
              <mxPoint x="1180" y="1127" as="targetPoint" />
            </mxGeometry>
          </mxCell>
        </UserObject>
        <UserObject label="" tags="Фон" id="9Zyb0vrRmJTuWRbHED0v-72">
          <mxCell style="vsdxID=409;edgeStyle=none;startArrow=none;endArrow=none;startSize=3;endSize=3;strokeColor=#000000;spacingTop=-2;spacingBottom=-2;spacingLeft=-2;spacingRight=-2;verticalAlign=middle;html=1;labelBackgroundColor=#FFFFFF;rounded=0;fontFamily=Arial;fontSize=14;" parent="WIyWlLk6GJQsqaUBKTNV-1" edge="1">
            <mxGeometry relative="1" as="geometry">
              <Array as="points" />
              <mxPoint x="1180" y="1147" as="sourcePoint" />
              <mxPoint x="918" y="1147" as="targetPoint" />
            </mxGeometry>
          </mxCell>
        </UserObject>
        <UserObject label="" tags="Фон" id="9Zyb0vrRmJTuWRbHED0v-73">
          <mxCell style="vsdxID=410;edgeStyle=none;startArrow=none;endArrow=none;startSize=3;endSize=3;strokeWidth=4;strokeColor=#000000;spacingTop=-2;spacingBottom=-2;spacingLeft=-2;spacingRight=-2;verticalAlign=middle;html=1;labelBackgroundColor=#FFFFFF;rounded=0;fontFamily=Arial;fontSize=14;" parent="WIyWlLk6GJQsqaUBKTNV-1" edge="1">
            <mxGeometry relative="1" as="geometry">
              <Array as="points" />
              <mxPoint x="918" y="1047" as="sourcePoint" />
              <mxPoint x="1180" y="1047" as="targetPoint" />
            </mxGeometry>
          </mxCell>
        </UserObject>
        <UserObject label="" tags="Фон" id="9Zyb0vrRmJTuWRbHED0v-74">
          <mxCell style="vsdxID=411;edgeStyle=none;startArrow=none;endArrow=none;startSize=3;endSize=3;strokeWidth=4;strokeColor=#000000;spacingTop=-2;spacingBottom=-2;spacingLeft=-2;spacingRight=-2;verticalAlign=middle;html=1;labelBackgroundColor=#FFFFFF;rounded=0;fontFamily=Arial;fontSize=14;" parent="WIyWlLk6GJQsqaUBKTNV-1" edge="1">
            <mxGeometry relative="1" as="geometry">
              <Array as="points" />
              <mxPoint x="944" y="949" as="sourcePoint" />
              <mxPoint x="944" y="1047" as="targetPoint" />
            </mxGeometry>
          </mxCell>
        </UserObject>
        <UserObject label="&lt;div style=&quot;font-size: 14px;&quot;&gt;&lt;font style=&quot;color: rgb(0, 0, 0); direction: ltr; letter-spacing: 0px; line-height: 120%; opacity: 1; font-size: 14px;&quot;&gt;&lt;i style=&quot;font-size: 14px;&quot;&gt;&lt;font style=&quot;font-size: 14px;&quot;&gt;Зм.&lt;/font&gt;&lt;br style=&quot;font-size: 14px;&quot;&gt;&lt;/i&gt;&lt;/font&gt;&lt;/div&gt;" tags="Фон" id="9Zyb0vrRmJTuWRbHED0v-75">
          <mxCell style="verticalAlign=middle;align=center;overflow=width;vsdxID=412;fillColor=none;gradientColor=none;shape=stencil(nZBLDoAgDERP0z3SIyjew0SURgSD+Lu9kMZoXLhwN9O+tukAlrNpJg1SzDH4QW/URgNYgZTkjA4UkwJUgGXng+6DX1zLfmoymdXo17xh5zmRJ6Q42BWCfc2oJfdAr+Yv+AP9Cb7OJ3H/2JG1HNGz/84klThPVCc=);strokeColor=none;strokeWidth=3;spacingTop=-2;spacingBottom=-2;spacingLeft=-2;spacingRight=-2;points=[];labelBackgroundColor=none;rounded=0;html=1;whiteSpace=wrap;fontFamily=Arial;fontSize=14;" parent="WIyWlLk6GJQsqaUBKTNV-1" vertex="1">
            <mxGeometry x="917" y="1027" width="28" height="23" as="geometry" />
          </mxCell>
        </UserObject>
        <UserObject label="&lt;div style=&quot;font-size: 14px;&quot;&gt;&lt;font style=&quot;color: rgb(0, 0, 0); direction: ltr; letter-spacing: 0px; line-height: 120%; opacity: 1; font-size: 14px;&quot;&gt;&lt;i style=&quot;font-size: 14px;&quot;&gt;&lt;font style=&quot;font-size: 14px;&quot;&gt;Ліст&lt;/font&gt;&lt;br style=&quot;font-size: 14px;&quot;&gt;&lt;/i&gt;&lt;/font&gt;&lt;/div&gt;" tags="Фон" id="9Zyb0vrRmJTuWRbHED0v-76">
          <mxCell style="verticalAlign=middle;align=center;overflow=width;vsdxID=413;fillColor=none;gradientColor=none;shape=stencil(nZBLDoAgDERP0z3SIyjew0SURgSD+Lu9kMZoXLhwN9O+tukAlrNpJg1SzDH4QW/URgNYgZTkjA4UkwJUgGXng+6DX1zLfmoymdXo17xh5zmRJ6Q42BWCfc2oJfdAr+Yv+AP9Cb7OJ3H/2JG1HNGz/84klThPVCc=);strokeColor=none;strokeWidth=3;spacingTop=-2;spacingBottom=-2;spacingLeft=-2;spacingRight=-2;points=[];labelBackgroundColor=none;rounded=0;html=1;whiteSpace=wrap;fontFamily=Arial;fontSize=14;" parent="WIyWlLk6GJQsqaUBKTNV-1" vertex="1">
            <mxGeometry x="920" y="1027" width="96" height="23" as="geometry" />
          </mxCell>
        </UserObject>
        <UserObject label="&lt;div style=&quot;font-size: 14px;&quot;&gt;&lt;font style=&quot;font-size: 14px; color: rgb(0, 0, 0); direction: ltr; letter-spacing: 0px; line-height: 120%; opacity: 1;&quot;&gt;&lt;i style=&quot;font-size: 14px;&quot;&gt;№ дакум.&lt;br style=&quot;font-size: 14px;&quot;&gt;&lt;/i&gt;&lt;/font&gt;&lt;/div&gt;" tags="Фон" id="9Zyb0vrRmJTuWRbHED0v-77">
          <mxCell style="verticalAlign=middle;align=center;overflow=width;vsdxID=414;fillColor=none;gradientColor=none;shape=stencil(nZBLDoAgDERP0z3SIyjew0SURgSD+Lu9kMZoXLhwN9O+tukAlrNpJg1SzDH4QW/URgNYgZTkjA4UkwJUgGXng+6DX1zLfmoymdXo17xh5zmRJ6Q42BWCfc2oJfdAr+Yv+AP9Cb7OJ3H/2JG1HNGz/84klThPVCc=);strokeColor=none;strokeWidth=3;spacingTop=-2;spacingBottom=-2;spacingLeft=-2;spacingRight=-2;points=[];labelBackgroundColor=none;rounded=0;html=1;whiteSpace=wrap;fontFamily=Arial;fontSize=14;" parent="WIyWlLk6GJQsqaUBKTNV-1" vertex="1">
            <mxGeometry x="980" y="1027" width="104" height="23" as="geometry" />
          </mxCell>
        </UserObject>
        <UserObject label="&lt;div style=&quot;font-size: 14px;&quot;&gt;&lt;font style=&quot;font-size: 14px; color: rgb(0, 0, 0); direction: ltr; letter-spacing: 0px; line-height: 120%; opacity: 1;&quot;&gt;&lt;i style=&quot;font-size: 14px;&quot;&gt;Подп.&lt;br style=&quot;font-size: 14px;&quot;&gt;&lt;/i&gt;&lt;/font&gt;&lt;/div&gt;" tags="Фон" id="9Zyb0vrRmJTuWRbHED0v-78">
          <mxCell style="verticalAlign=middle;align=center;overflow=width;vsdxID=415;fillColor=none;gradientColor=none;shape=stencil(nZBLDoAgDERP0z3SIyjew0SURgSD+Lu9kMZoXLhwN9O+tukAlrNpJg1SzDH4QW/URgNYgZTkjA4UkwJUgGXng+6DX1zLfmoymdXo17xh5zmRJ6Q42BWCfc2oJfdAr+Yv+AP9Cb7OJ3H/2JG1HNGz/84klThPVCc=);strokeColor=none;strokeWidth=3;spacingTop=-2;spacingBottom=-2;spacingLeft=-2;spacingRight=-2;points=[];labelBackgroundColor=none;rounded=0;html=1;whiteSpace=wrap;fontFamily=Arial;fontSize=14;" parent="WIyWlLk6GJQsqaUBKTNV-1" vertex="1">
            <mxGeometry x="1055" y="1027" width="104" height="23" as="geometry" />
          </mxCell>
        </UserObject>
        <UserObject label="&lt;div style=&quot;font-size: 14px;&quot;&gt;&lt;font style=&quot;font-size: 14px; color: rgb(0, 0, 0); direction: ltr; letter-spacing: 0px; line-height: 120%; opacity: 1;&quot;&gt;&lt;i style=&quot;font-size: 14px;&quot;&gt;Дата&lt;br style=&quot;font-size: 14px;&quot;&gt;&lt;/i&gt;&lt;/font&gt;&lt;/div&gt;" tags="Фон" id="9Zyb0vrRmJTuWRbHED0v-79">
          <mxCell style="verticalAlign=middle;align=center;overflow=width;vsdxID=416;fillColor=none;gradientColor=none;shape=stencil(nZBLDoAgDERP0z3SIyjew0SURgSD+Lu9kMZoXLhwN9O+tukAlrNpJg1SzDH4QW/URgNYgZTkjA4UkwJUgGXng+6DX1zLfmoymdXo17xh5zmRJ6Q42BWCfc2oJfdAr+Yv+AP9Cb7OJ3H/2JG1HNGz/84klThPVCc=);strokeColor=none;strokeWidth=3;spacingTop=-2;spacingBottom=-2;spacingLeft=-2;spacingRight=-2;points=[];labelBackgroundColor=none;rounded=0;html=1;whiteSpace=wrap;fontFamily=Arial;fontSize=14;" parent="WIyWlLk6GJQsqaUBKTNV-1" vertex="1">
            <mxGeometry x="1140" y="1027" width="40" height="18" as="geometry" />
          </mxCell>
        </UserObject>
        <UserObject label="&lt;div style=&quot;font-size: 14px;&quot;&gt;&lt;font style=&quot;font-size: 14px; color: rgb(0, 0, 0); direction: ltr; letter-spacing: 0px; line-height: 120%; opacity: 1;&quot;&gt;&lt;i style=&quot;font-size: 14px;&quot;&gt;Разраб.&lt;br style=&quot;font-size: 14px;&quot;&gt;&lt;/i&gt;&lt;/font&gt;&lt;/div&gt;" tags="Фон" id="9Zyb0vrRmJTuWRbHED0v-80">
          <mxCell style="verticalAlign=middle;align=center;overflow=width;vsdxID=417;fillColor=none;gradientColor=none;shape=stencil(nZBLDoAgDERP0z3SIyjew0SURgSD+Lu9kMZoXLhwN9O+tukAlrNpJg1SzDH4QW/URgNYgZTkjA4UkwJUgGXng+6DX1zLfmoymdXo17xh5zmRJ6Q42BWCfc2oJfdAr+Yv+AP9Cb7OJ3H/2JG1HNGz/84klThPVCc=);strokeColor=none;strokeWidth=3;spacingTop=-2;spacingBottom=-2;spacingLeft=-2;spacingRight=-2;points=[];labelBackgroundColor=none;rounded=0;html=1;whiteSpace=wrap;fontFamily=Arial;fontSize=14;" parent="WIyWlLk6GJQsqaUBKTNV-1" vertex="1">
            <mxGeometry x="904" y="1050" width="104" height="20" as="geometry" />
          </mxCell>
        </UserObject>
        <UserObject label="&lt;div style=&quot;font-size: 14px;&quot;&gt;&lt;font style=&quot;font-size: 14px; color: rgb(0, 0, 0); direction: ltr; letter-spacing: 0px; line-height: 120%; opacity: 1;&quot;&gt;&lt;i style=&quot;font-size: 14px;&quot;&gt;Прав.&lt;br style=&quot;font-size: 14px;&quot;&gt;&lt;/i&gt;&lt;/font&gt;&lt;/div&gt;" tags="Фон" id="9Zyb0vrRmJTuWRbHED0v-81">
          <mxCell style="verticalAlign=middle;align=center;overflow=width;vsdxID=418;fillColor=none;gradientColor=none;shape=stencil(nZBLDoAgDERP0z3SIyjew0SURgSD+Lu9kMZoXLhwN9O+tukAlrNpJg1SzDH4QW/URgNYgZTkjA4UkwJUgGXng+6DX1zLfmoymdXo17xh5zmRJ6Q42BWCfc2oJfdAr+Yv+AP9Cb7OJ3H/2JG1HNGz/84klThPVCc=);strokeColor=none;strokeWidth=3;spacingTop=-2;spacingBottom=-2;spacingLeft=-2;spacingRight=-2;points=[];labelBackgroundColor=none;rounded=0;html=1;whiteSpace=wrap;fontFamily=Arial;fontSize=14;" parent="WIyWlLk6GJQsqaUBKTNV-1" vertex="1">
            <mxGeometry x="904" y="1066" width="104" height="23" as="geometry" />
          </mxCell>
        </UserObject>
        <UserObject label="&lt;div style=&quot;font-size: 14px;&quot;&gt;&lt;p style=&quot;text-align: left; margin: 0px; text-indent: 0px; vertical-align: middle; direction: ltr; font-size: 14px;&quot;&gt;&lt;font style=&quot;font-size: 14px;&quot;&gt;&lt;span style=&quot;font-size: 14px;&quot;&gt;&lt;i style=&quot;font-size: 14px;&quot;&gt;Капейкина&lt;/i&gt;&lt;/span&gt;&lt;/font&gt;&lt;/p&gt;&lt;/div&gt;" tags="Фон" id="9Zyb0vrRmJTuWRbHED0v-82">
          <mxCell style="verticalAlign=middle;align=left;overflow=width;vsdxID=422;fillColor=none;gradientColor=none;shape=stencil(nZBLDoAgDERP0z3SIyjew0SURgSD+Lu9kMZoXLhwN9O+tukAlrNpJg1SzDH4QW/URgNYgZTkjA4UkwJUgGXng+6DX1zLfmoymdXo17xh5zmRJ6Q42BWCfc2oJfdAr+Yv+AP9Cb7OJ3H/2JG1HNGz/84klThPVCc=);strokeColor=none;strokeWidth=3;spacingTop=-2;spacingBottom=-2;spacingLeft=-2;spacingRight=-2;points=[];labelBackgroundColor=none;rounded=0;html=1;whiteSpace=wrap;fontFamily=Arial;fontSize=14;" parent="WIyWlLk6GJQsqaUBKTNV-1" vertex="1">
            <mxGeometry x="995" y="1050" width="104" height="20" as="geometry" />
          </mxCell>
        </UserObject>
        <UserObject label="&lt;div style=&quot;font-size: 14px;&quot;&gt;&lt;font style=&quot;font-size: 14px; color: rgb(0, 0, 0); direction: ltr; letter-spacing: 0px; line-height: 120%; opacity: 1;&quot;&gt;&lt;i style=&quot;font-size: 14px;&quot;&gt;Літ.&lt;br style=&quot;font-size: 14px;&quot;&gt;&lt;/i&gt;&lt;/font&gt;&lt;/div&gt;" tags="Фон" id="9Zyb0vrRmJTuWRbHED0v-83">
          <mxCell style="verticalAlign=middle;align=center;overflow=width;vsdxID=423;fillColor=none;gradientColor=none;shape=stencil(nZBLDoAgDERP0z3SIyjew0SURgSD+Lu9kMZoXLhwN9O+tukAlrNpJg1SzDH4QW/URgNYgZTkjA4UkwJUgGXng+6DX1zLfmoymdXo17xh5zmRJ6Q42BWCfc2oJfdAr+Yv+AP9Cb7OJ3H/2JG1HNGz/84klThPVCc=);strokeColor=none;strokeWidth=3;spacingTop=-2;spacingBottom=-2;spacingLeft=-2;spacingRight=-2;points=[];labelBackgroundColor=none;rounded=0;html=1;whiteSpace=wrap;fontFamily=Arial;fontSize=14;" parent="WIyWlLk6GJQsqaUBKTNV-1" vertex="1">
            <mxGeometry x="1437" y="1007" width="104" height="23" as="geometry" />
          </mxCell>
        </UserObject>
        <UserObject label="&lt;div style=&quot;font-size: 14px;&quot;&gt;&lt;font style=&quot;font-size: 14px; color: rgb(0, 0, 0); direction: ltr; letter-spacing: 0px; line-height: 120%; opacity: 1;&quot;&gt;&lt;i style=&quot;font-size: 14px;&quot;&gt;Маса&lt;br style=&quot;font-size: 14px;&quot;&gt;&lt;/i&gt;&lt;/font&gt;&lt;/div&gt;" tags="Фон" id="9Zyb0vrRmJTuWRbHED0v-84">
          <mxCell style="verticalAlign=middle;align=center;overflow=width;vsdxID=424;fillColor=none;gradientColor=none;shape=stencil(nZBLDoAgDERP0z3SIyjew0SURgSD+Lu9kMZoXLhwN9O+tukAlrNpJg1SzDH4QW/URgNYgZTkjA4UkwJUgGXng+6DX1zLfmoymdXo17xh5zmRJ6Q42BWCfc2oJfdAr+Yv+AP9Cb7OJ3H/2JG1HNGz/84klThPVCc=);strokeColor=none;strokeWidth=3;spacingTop=-2;spacingBottom=-2;spacingLeft=-2;spacingRight=-2;points=[];labelBackgroundColor=none;rounded=0;html=1;whiteSpace=wrap;fontFamily=Arial;fontSize=14;" parent="WIyWlLk6GJQsqaUBKTNV-1" vertex="1">
            <mxGeometry x="1500" y="1007" width="104" height="13" as="geometry" />
          </mxCell>
        </UserObject>
        <UserObject label="&lt;div style=&quot;font-size: 14px;&quot;&gt;&lt;font style=&quot;font-size: 14px; color: rgb(0, 0, 0); direction: ltr; letter-spacing: 0px; line-height: 120%; opacity: 1;&quot;&gt;&lt;i style=&quot;font-size: 14px;&quot;&gt;Маштаб&lt;br style=&quot;font-size: 14px;&quot;&gt;&lt;/i&gt;&lt;/font&gt;&lt;/div&gt;" tags="Фон" id="9Zyb0vrRmJTuWRbHED0v-85">
          <mxCell style="verticalAlign=middle;align=center;overflow=width;vsdxID=425;fillColor=none;gradientColor=none;shape=stencil(nZBLDoAgDERP0z3SIyjew0SURgSD+Lu9kMZoXLhwN9O+tukAlrNpJg1SzDH4QW/URgNYgZTkjA4UkwJUgGXng+6DX1zLfmoymdXo17xh5zmRJ6Q42BWCfc2oJfdAr+Yv+AP9Cb7OJ3H/2JG1HNGz/84klThPVCc=);strokeColor=none;strokeWidth=3;spacingTop=-2;spacingBottom=-2;spacingLeft=-2;spacingRight=-2;points=[];labelBackgroundColor=none;rounded=0;html=1;whiteSpace=wrap;fontFamily=Arial;fontSize=14;" parent="WIyWlLk6GJQsqaUBKTNV-1" vertex="1">
            <mxGeometry x="1572" y="1007" width="104" height="21" as="geometry" />
          </mxCell>
        </UserObject>
        <UserObject label="&lt;div style=&quot;font-size: 14px;&quot;&gt;&lt;font style=&quot;font-size: 14px; color: rgb(0, 0, 0); direction: ltr; letter-spacing: 0px; line-height: 120%; opacity: 1;&quot;&gt;&lt;i style=&quot;font-size: 14px;&quot;&gt;Ліст&lt;br style=&quot;font-size: 14px;&quot;&gt;&lt;/i&gt;&lt;/font&gt;&lt;/div&gt;" tags="Фон" id="9Zyb0vrRmJTuWRbHED0v-86">
          <mxCell style="verticalAlign=middle;align=center;overflow=width;vsdxID=426;fillColor=none;gradientColor=none;shape=stencil(nZBLDoAgDERP0z3SIyjew0SURgSD+Lu9kMZoXLhwN9O+tukAlrNpJg1SzDH4QW/URgNYgZTkjA4UkwJUgGXng+6DX1zLfmoymdXo17xh5zmRJ6Q42BWCfc2oJfdAr+Yv+AP9Cb7OJ3H/2JG1HNGz/84klThPVCc=);strokeColor=none;strokeWidth=3;spacingTop=-2;spacingBottom=-2;spacingLeft=-2;spacingRight=-2;points=[];labelBackgroundColor=none;rounded=0;html=1;whiteSpace=wrap;fontFamily=Arial;fontSize=14;" parent="WIyWlLk6GJQsqaUBKTNV-1" vertex="1">
            <mxGeometry x="1448" y="1087" width="104" height="13" as="geometry" />
          </mxCell>
        </UserObject>
        <UserObject label="&lt;div style=&quot;font-size: 14px;&quot;&gt;&lt;font style=&quot;font-size: 14px; color: rgb(0, 0, 0); direction: ltr; letter-spacing: 0px; line-height: 120%; opacity: 1;&quot;&gt;&lt;i style=&quot;font-size: 14px;&quot;&gt;Лістоў&lt;br style=&quot;font-size: 14px;&quot;&gt;&lt;/i&gt;&lt;/font&gt;&lt;/div&gt;" tags="Фон" id="9Zyb0vrRmJTuWRbHED0v-87">
          <mxCell style="verticalAlign=middle;align=center;overflow=width;vsdxID=427;fillColor=none;gradientColor=none;shape=stencil(nZBLDoAgDERP0z3SIyjew0SURgSD+Lu9kMZoXLhwN9O+tukAlrNpJg1SzDH4QW/URgNYgZTkjA4UkwJUgGXng+6DX1zLfmoymdXo17xh5zmRJ6Q42BWCfc2oJfdAr+Yv+AP9Cb7OJ3H/2JG1HNGz/84klThPVCc=);strokeColor=none;strokeWidth=3;spacingTop=-2;spacingBottom=-2;spacingLeft=-2;spacingRight=-2;points=[];labelBackgroundColor=none;rounded=0;html=1;whiteSpace=wrap;fontFamily=Arial;fontSize=14;" parent="WIyWlLk6GJQsqaUBKTNV-1" vertex="1">
            <mxGeometry x="1552" y="1085" width="104" height="23" as="geometry" />
          </mxCell>
        </UserObject>
        <UserObject label="&lt;div style=&quot;font-size: 14px;&quot;&gt;&lt;font style=&quot;font-size: 14px; color: rgb(0, 0, 0); direction: ltr; letter-spacing: 0px; line-height: 120%; opacity: 1;&quot;&gt;&lt;i style=&quot;font-size: 14px;&quot;&gt;У&lt;br style=&quot;font-size: 14px;&quot;&gt;&lt;/i&gt;&lt;/font&gt;&lt;/div&gt;" tags="Фон" id="9Zyb0vrRmJTuWRbHED0v-88">
          <mxCell style="verticalAlign=middle;align=center;overflow=width;vsdxID=428;fillColor=none;gradientColor=none;shape=stencil(nZBLDoAgDERP0z3SIyjew0SURgSD+Lu9kMZoXLhwN9O+tukAlrNpJg1SzDH4QW/URgNYgZTkjA4UkwJUgGXng+6DX1zLfmoymdXo17xh5zmRJ6Q42BWCfc2oJfdAr+Yv+AP9Cb7OJ3H/2JG1HNGz/84klThPVCc=);strokeColor=none;points=[];labelBackgroundColor=none;rounded=0;html=1;whiteSpace=wrap;fontFamily=Arial;fontSize=14;" parent="WIyWlLk6GJQsqaUBKTNV-1" vertex="1">
            <mxGeometry x="1472" y="1036" width="32" height="40" as="geometry" />
          </mxCell>
        </UserObject>
        <UserObject label="" tags="Фон" id="9Zyb0vrRmJTuWRbHED0v-89">
          <mxCell style="vsdxID=429;edgeStyle=none;startArrow=none;endArrow=none;startSize=3;endSize=3;strokeWidth=4;strokeColor=#000000;spacingTop=-2;spacingBottom=-2;spacingLeft=-2;spacingRight=-2;verticalAlign=middle;html=1;labelBackgroundColor=#FFFFFF;rounded=0;fontFamily=Arial;fontSize=14;" parent="WIyWlLk6GJQsqaUBKTNV-1" edge="1">
            <mxGeometry relative="1" as="geometry">
              <Array as="points" />
              <mxPoint x="918" y="947" as="sourcePoint" />
              <mxPoint x="1660" y="947" as="targetPoint" />
            </mxGeometry>
          </mxCell>
        </UserObject>
        <UserObject label="&lt;div style=&quot;font-size: 14px;&quot;&gt;&lt;font style=&quot;font-size: 14px; color: rgb(0, 0, 0); direction: ltr; letter-spacing: 0px; line-height: 120%; opacity: 1;&quot;&gt;&lt;i style=&quot;font-size: 14px;&quot;&gt;1&lt;br style=&quot;font-size: 14px;&quot;&gt;&lt;/i&gt;&lt;/font&gt;&lt;/div&gt;" tags="Фон" id="9Zyb0vrRmJTuWRbHED0v-90">
          <mxCell style="verticalAlign=middle;align=center;overflow=width;vsdxID=431;fillColor=none;gradientColor=none;shape=stencil(nZBLDoAgDERP0z3SIyjew0SURgSD+Lu9kMZoXLhwN9O+tukAlrNpJg1SzDH4QW/URgNYgZTkjA4UkwJUgGXng+6DX1zLfmoymdXo17xh5zmRJ6Q42BWCfc2oJfdAr+Yv+AP9Cb7OJ3H/2JG1HNGz/84klThPVCc=);strokeColor=none;strokeWidth=3;spacingTop=-2;spacingBottom=-2;spacingLeft=-2;spacingRight=-2;points=[];labelBackgroundColor=none;rounded=0;html=1;whiteSpace=wrap;fontFamily=Arial;fontSize=14;" parent="WIyWlLk6GJQsqaUBKTNV-1" vertex="1">
            <mxGeometry x="1632" y="1086" width="14" height="21" as="geometry" />
          </mxCell>
        </UserObject>
        <UserObject label="&lt;div style=&quot;&quot;&gt;&lt;p style=&quot;text-align: center; margin: 0px; text-indent: 0px; vertical-align: middle; direction: ltr;&quot;&gt;&lt;font size=&quot;1&quot; style=&quot;color: rgb(0, 0, 0); direction: ltr; letter-spacing: 0px; line-height: 120%; opacity: 1;&quot;&gt;&lt;i style=&quot;font-size: 18px;&quot;&gt;БДУІР, гр. 250502&lt;/i&gt;&lt;/font&gt;&lt;font style=&quot;font-size: 14px; color: rgb(0, 0, 0); direction: ltr; letter-spacing: 0px; line-height: 120%; opacity: 1;&quot;&gt;&lt;i style=&quot;font-size: 14px;&quot;&gt;&lt;br style=&quot;font-size: 14px;&quot;&gt;&lt;/i&gt;&lt;/font&gt;&lt;/p&gt;&lt;/div&gt;" tags="Фон" id="9Zyb0vrRmJTuWRbHED0v-91">
          <mxCell style="verticalAlign=middle;align=center;overflow=width;vsdxID=433;fillColor=none;gradientColor=none;shape=stencil(nZBLDoAgDERP0z3SIyjew0SURgSD+Lu9kMZoXLhwN9O+tukAlrNpJg1SzDH4QW/URgNYgZTkjA4UkwJUgGXng+6DX1zLfmoymdXo17xh5zmRJ6Q42BWCfc2oJfdAr+Yv+AP9Cb7OJ3H/2JG1HNGz/84klThPVCc=);strokeColor=none;points=[];labelBackgroundColor=none;rounded=0;html=1;whiteSpace=wrap;fontFamily=Arial;fontSize=14;" parent="WIyWlLk6GJQsqaUBKTNV-1" vertex="1">
            <mxGeometry x="1461" y="1108" width="199" height="60" as="geometry" />
          </mxCell>
        </UserObject>
        <UserObject label="&lt;div style=&quot;font-size: 14px;&quot;&gt;&lt;p style=&quot;text-align: center; margin: 0px; text-indent: 0px; vertical-align: middle; direction: ltr; font-size: 28px;&quot;&gt;&lt;font style=&quot;font-size: 28px; color: rgb(0, 0, 0); direction: ltr; letter-spacing: 0px; line-height: 120%; opacity: 1;&quot;&gt;&lt;font style=&quot;border-color: var(--border-color); letter-spacing: 0px; direction: ltr; line-height: 33.864px; opacity: 1; font-size: 28px;&quot;&gt;&lt;i style=&quot;border-color: var(--border-color);&quot;&gt;ДУІР.&lt;/i&gt;&lt;/font&gt;&lt;font style=&quot;border-color: var(--border-color); letter-spacing: 0px; direction: ltr; line-height: 33.864px; opacity: 1; font-size: 28px;&quot;&gt;&lt;i style=&quot;border-color: var(--border-color);&quot;&gt;400201&lt;/i&gt;&lt;/font&gt;&lt;font style=&quot;border-color: var(--border-color); letter-spacing: 0px; direction: ltr; line-height: 33.864px; opacity: 1; font-size: 28px;&quot;&gt;&lt;i style=&quot;border-color: var(--border-color);&quot;&gt;.215&lt;/i&gt;&lt;/font&gt;&lt;font style=&quot;border-color: var(--border-color); letter-spacing: 0px; direction: ltr; line-height: 33.864px; opacity: 1; font-size: 28px;&quot;&gt;&lt;i style=&quot;border-color: var(--border-color);&quot;&gt;&amp;nbsp;ПД2&lt;/i&gt;&lt;/font&gt;&lt;i style=&quot;font-size: 14px;&quot;&gt;&lt;br style=&quot;font-size: 14px;&quot;&gt;&lt;/i&gt;&lt;/font&gt;&lt;/p&gt;&lt;/div&gt;" tags="Фон" id="9Zyb0vrRmJTuWRbHED0v-92">
          <mxCell style="verticalAlign=middle;align=center;overflow=width;vsdxID=434;fillColor=none;gradientColor=none;shape=stencil(nZBLDoAgDERP0z3SIyjew0SURgSD+Lu9kMZoXLhwN9O+tukAlrNpJg1SzDH4QW/URgNYgZTkjA4UkwJUgGXng+6DX1zLfmoymdXo17xh5zmRJ6Q42BWCfc2oJfdAr+Yv+AP9Cb7OJ3H/2JG1HNGz/84klThPVCc=);strokeColor=none;points=[];labelBackgroundColor=none;rounded=0;html=1;whiteSpace=wrap;fontFamily=Arial;fontSize=14;" parent="WIyWlLk6GJQsqaUBKTNV-1" vertex="1">
            <mxGeometry x="1176" y="948" width="480" height="60" as="geometry" />
          </mxCell>
        </UserObject>
        <UserObject label="&lt;div style=&quot;font-size: 14px;&quot;&gt;&lt;p style=&quot;text-align: left; margin: 0px; text-indent: 0px; vertical-align: middle; direction: ltr; font-size: 14px;&quot;&gt;&lt;font style=&quot;font-size: 14px; color: rgb(0, 0, 0); direction: ltr; letter-spacing: 0px; line-height: 120%; opacity: 1;&quot;&gt;&lt;i style=&quot;font-size: 14px;&quot;&gt;Богдан&lt;/i&gt;&lt;/font&gt;&lt;/p&gt;&lt;/div&gt;" tags="Фон" id="9Zyb0vrRmJTuWRbHED0v-93">
          <mxCell style="verticalAlign=middle;align=left;overflow=width;vsdxID=435;fillColor=none;gradientColor=none;shape=stencil(nZBLDoAgDERP0z3SIyjew0SURgSD+Lu9kMZoXLhwN9O+tukAlrNpJg1SzDH4QW/URgNYgZTkjA4UkwJUgGXng+6DX1zLfmoymdXo17xh5zmRJ6Q42BWCfc2oJfdAr+Yv+AP9Cb7OJ3H/2JG1HNGz/84klThPVCc=);strokeColor=none;strokeWidth=3;spacingTop=-2;spacingBottom=-2;spacingLeft=-2;spacingRight=-2;points=[];labelBackgroundColor=none;rounded=0;html=1;whiteSpace=wrap;fontFamily=Arial;fontSize=14;" parent="WIyWlLk6GJQsqaUBKTNV-1" vertex="1">
            <mxGeometry x="995" y="1068" width="89" height="20" as="geometry" />
          </mxCell>
        </UserObject>
        <UserObject label="" tags="Фон" id="9Zyb0vrRmJTuWRbHED0v-94">
          <mxCell style="vsdxID=437;fillColor=none;gradientColor=none;shape=stencil(nZBLDoAgDERP0z3SIyjew0SURgSD+Lu9kMZoXLhwN9O+tukAlrNpJg1SzDH4QW/URgNYgZTkjA4UkwJUgGXng+6DX1zLfmoymdXo17xh5zmRJ6Q42BWCfc2oJfdAr+Yv+AP9Cb7OJ3H/2JG1HNGz/84klThPVCc=);strokeColor=none;points=[];labelBackgroundColor=none;rounded=0;html=1;whiteSpace=wrap;fontFamily=Arial;fontSize=14;" parent="WIyWlLk6GJQsqaUBKTNV-1" vertex="1">
            <mxGeometry x="1275" y="1110" width="214" height="28" as="geometry" />
          </mxCell>
        </UserObject>
        <UserObject label="" tags="Фон" id="9Zyb0vrRmJTuWRbHED0v-95">
          <mxCell style="vsdxID=438;edgeStyle=none;startArrow=none;endArrow=none;startSize=3;endSize=3;strokeWidth=4;strokeColor=#000000;spacingTop=-2;spacingBottom=-2;spacingLeft=-2;spacingRight=-2;verticalAlign=middle;html=1;labelBackgroundColor=#FFFFFF;rounded=0;fontFamily=Arial;fontSize=14;" parent="WIyWlLk6GJQsqaUBKTNV-1" edge="1">
            <mxGeometry relative="1" as="geometry">
              <Array as="points" />
              <mxPoint x="918" y="1168" as="sourcePoint" />
              <mxPoint x="1660" y="1168" as="targetPoint" />
            </mxGeometry>
          </mxCell>
        </UserObject>
        <UserObject label="&lt;div style=&quot;font-size: 14px;&quot;&gt;&lt;font style=&quot;font-size: 14px; color: rgb(0, 0, 0); direction: ltr; letter-spacing: 0px; line-height: 120%; opacity: 1;&quot;&gt;&lt;i style=&quot;font-size: 14px;&quot;&gt;Т.кантр.&lt;br style=&quot;font-size: 14px;&quot;&gt;&lt;/i&gt;&lt;/font&gt;&lt;/div&gt;" tags="Фон" id="9Zyb0vrRmJTuWRbHED0v-96">
          <mxCell style="verticalAlign=middle;align=center;overflow=width;vsdxID=418;fillColor=none;gradientColor=none;shape=stencil(nZBLDoAgDERP0z3SIyjew0SURgSD+Lu9kMZoXLhwN9O+tukAlrNpJg1SzDH4QW/URgNYgZTkjA4UkwJUgGXng+6DX1zLfmoymdXo17xh5zmRJ6Q42BWCfc2oJfdAr+Yv+AP9Cb7OJ3H/2JG1HNGz/84klThPVCc=);strokeColor=none;strokeWidth=3;spacingTop=-2;spacingBottom=-2;spacingLeft=-2;spacingRight=-2;points=[];labelBackgroundColor=none;rounded=0;html=1;whiteSpace=wrap;fontFamily=Arial;fontSize=14;" parent="WIyWlLk6GJQsqaUBKTNV-1" vertex="1">
            <mxGeometry x="904" y="1086" width="104" height="23" as="geometry" />
          </mxCell>
        </UserObject>
        <UserObject label="&lt;div style=&quot;font-size: 14px;&quot;&gt;&lt;font style=&quot;font-size: 14px; color: rgb(0, 0, 0); direction: ltr; letter-spacing: 0px; line-height: 120%; opacity: 1;&quot;&gt;&lt;i style=&quot;font-size: 14px;&quot;&gt;Н.кантр.&lt;br style=&quot;font-size: 14px;&quot;&gt;&lt;/i&gt;&lt;/font&gt;&lt;/div&gt;" tags="Фон" id="9Zyb0vrRmJTuWRbHED0v-97">
          <mxCell style="verticalAlign=middle;align=center;overflow=width;vsdxID=418;fillColor=none;gradientColor=none;shape=stencil(nZBLDoAgDERP0z3SIyjew0SURgSD+Lu9kMZoXLhwN9O+tukAlrNpJg1SzDH4QW/URgNYgZTkjA4UkwJUgGXng+6DX1zLfmoymdXo17xh5zmRJ6Q42BWCfc2oJfdAr+Yv+AP9Cb7OJ3H/2JG1HNGz/84klThPVCc=);strokeColor=none;strokeWidth=3;spacingTop=-2;spacingBottom=-2;spacingLeft=-2;spacingRight=-2;points=[];labelBackgroundColor=none;rounded=0;html=1;whiteSpace=wrap;fontFamily=Arial;fontSize=14;" parent="WIyWlLk6GJQsqaUBKTNV-1" vertex="1">
            <mxGeometry x="904" y="1126.5" width="104" height="23" as="geometry" />
          </mxCell>
        </UserObject>
        <UserObject label="&lt;div style=&quot;font-size: 14px;&quot;&gt;&lt;font style=&quot;font-size: 14px; color: rgb(0, 0, 0); direction: ltr; letter-spacing: 0px; line-height: 120%; opacity: 1;&quot;&gt;&lt;i style=&quot;font-size: 14px;&quot;&gt;Зацв.&lt;br style=&quot;font-size: 14px;&quot;&gt;&lt;/i&gt;&lt;/font&gt;&lt;/div&gt;" tags="Фон" id="9Zyb0vrRmJTuWRbHED0v-98">
          <mxCell style="verticalAlign=middle;align=center;overflow=width;vsdxID=418;fillColor=none;gradientColor=none;shape=stencil(nZBLDoAgDERP0z3SIyjew0SURgSD+Lu9kMZoXLhwN9O+tukAlrNpJg1SzDH4QW/URgNYgZTkjA4UkwJUgGXng+6DX1zLfmoymdXo17xh5zmRJ6Q42BWCfc2oJfdAr+Yv+AP9Cb7OJ3H/2JG1HNGz/84klThPVCc=);strokeColor=none;strokeWidth=3;spacingTop=-2;spacingBottom=-2;spacingLeft=-2;spacingRight=-2;points=[];labelBackgroundColor=none;rounded=0;html=1;whiteSpace=wrap;fontFamily=Arial;fontSize=14;" parent="WIyWlLk6GJQsqaUBKTNV-1" vertex="1">
            <mxGeometry x="904" y="1145" width="104" height="23" as="geometry" />
          </mxCell>
        </UserObject>
        <UserObject label="" tags="Фон" id="9Zyb0vrRmJTuWRbHED0v-99">
          <mxCell style="vsdxID=400;edgeStyle=none;startArrow=none;endArrow=none;startSize=3;endSize=3;strokeWidth=4;strokeColor=#000000;spacingTop=-2;spacingBottom=-2;spacingLeft=-2;spacingRight=-2;verticalAlign=middle;html=1;labelBackgroundColor=#FFFFFF;rounded=0;fontFamily=Arial;fontSize=14;" parent="WIyWlLk6GJQsqaUBKTNV-1" edge="1">
            <mxGeometry relative="1" as="geometry">
              <Array as="points" />
              <mxPoint x="916" y="945" as="sourcePoint" />
              <mxPoint x="916" y="1170" as="targetPoint" />
            </mxGeometry>
          </mxCell>
        </UserObject>
        <UserObject label="&lt;div style=&quot;font-size: 14px;&quot;&gt;&lt;p style=&quot;text-align: center; margin: 0px; text-indent: 0px; vertical-align: middle; direction: ltr; font-size: 28px;&quot;&gt;&lt;font style=&quot;font-size: 28px; color: rgb(0, 0, 0); direction: ltr; letter-spacing: 0px; line-height: 120%; opacity: 1;&quot;&gt;&lt;font style=&quot;border-color: var(--border-color); letter-spacing: 0px; font-size: 28px; direction: ltr; line-height: 33.864px; opacity: 1;&quot;&gt;&lt;i style=&quot;border-color: var(--border-color);&quot;&gt;ДУІР.&lt;/i&gt;&lt;/font&gt;&lt;font style=&quot;border-color: var(--border-color); letter-spacing: 0px; font-size: 28px; direction: ltr; line-height: 33.864px; opacity: 1;&quot;&gt;&lt;i style=&quot;border-color: var(--border-color);&quot;&gt;400201&lt;/i&gt;&lt;/font&gt;&lt;font style=&quot;border-color: var(--border-color); letter-spacing: 0px; font-size: 28px; direction: ltr; line-height: 33.864px; opacity: 1;&quot;&gt;&lt;i style=&quot;border-color: var(--border-color);&quot;&gt;.215&lt;/i&gt;&lt;/font&gt;&lt;font style=&quot;border-color: var(--border-color); letter-spacing: 0px; font-size: 28px; direction: ltr; line-height: 33.864px; opacity: 1;&quot;&gt;&lt;i style=&quot;border-color: var(--border-color);&quot;&gt;&amp;nbsp;ПД2&lt;/i&gt;&lt;/font&gt;&lt;i style=&quot;font-size: 14px;&quot;&gt;&lt;br style=&quot;font-size: 14px;&quot;&gt;&lt;/i&gt;&lt;/font&gt;&lt;/p&gt;&lt;/div&gt;" tags="Фон" id="9Zyb0vrRmJTuWRbHED0v-100">
          <mxCell style="verticalAlign=middle;align=center;overflow=width;vsdxID=439;rotation=180;fillColor=none;gradientColor=none;shape=stencil(nZBLDoAgDERP0z3SIyjew0SURgSD+Lu9kMZoXLhwN9O+tukAlrNpJg1SzDH4QW/URgNYgZTkjA4UkwJUgGXng+6DX1zLfmoymdXo17xh5zmRJ6Q42BWCfc2oJfdAr+Yv+AP9Cb7OJ3H/2JG1HNGz/84klThPVCc=);strokeColor=none;spacingTop=-3;spacingBottom=-3;spacingLeft=-3;spacingRight=-3;points=[];labelBackgroundColor=none;rounded=0;html=1;whiteSpace=wrap;fontFamily=Arial;fontSize=14;" parent="WIyWlLk6GJQsqaUBKTNV-1" vertex="1">
            <mxGeometry x="90" y="20" width="280" height="56" as="geometry" />
          </mxCell>
        </UserObject>
        <mxCell id="AudeVgeOm1TKXRGM3u4S-0" value="&lt;span style=&quot;color: rgb(0, 0, 0); font-family: Arial; font-size: 14px; font-style: normal; font-variant-ligatures: normal; font-variant-caps: normal; font-weight: 400; letter-spacing: normal; orphans: 2; text-align: center; text-indent: 0px; text-transform: none; widows: 2; word-spacing: 0px; -webkit-text-stroke-width: 0px; background-color: rgb(251, 251, 251); text-decoration-thickness: initial; text-decoration-style: initial; text-decoration-color: initial; float: none; display: inline !important;&quot;&gt;Цыкл для здабывання і дадання інфармацыі аб прадукце&lt;/span&gt;" style="shape=loopLimit;whiteSpace=wrap;html=1;strokeWidth=2;" vertex="1" parent="WIyWlLk6GJQsqaUBKTNV-1">
          <mxGeometry x="636" y="320" width="200" height="100" as="geometry" />
        </mxCell>
        <mxCell id="AudeVgeOm1TKXRGM3u4S-1" value="&lt;span style=&quot;color: rgb(0, 0, 0); font-family: Arial; font-size: 14px; font-style: normal; font-variant-ligatures: normal; font-variant-caps: normal; font-weight: 400; letter-spacing: normal; orphans: 2; text-align: center; text-indent: 0px; text-transform: none; widows: 2; word-spacing: 0px; -webkit-text-stroke-width: 0px; background-color: rgb(251, 251, 251); text-decoration-thickness: initial; text-decoration-style: initial; text-decoration-color: initial; float: none; display: inline !important;&quot;&gt;Цыкл для здабывання і дадання інфармацыі аб прадукце&lt;/span&gt;" style="shape=loopLimit;whiteSpace=wrap;html=1;strokeWidth=2;direction=west;" vertex="1" parent="WIyWlLk6GJQsqaUBKTNV-1">
          <mxGeometry x="636" y="880" width="200" height="100" as="geometry" />
        </mxCell>
      </root>
    </mxGraphModel>
  </diagram>
</mxfile>
